<svg width="200" height="130" xmlns="http://www.w3.org/2000/svg" xmlns:xlink="http://www.w3.org/1999/xlink" xml:space="preserve" overflow="hidden"><defs><clipPath id="clip0"><rect x="0" y="0" width="200" height="130"/></clipPath></defs><g clip-path="url(#clip0)"><path d="M122.006 117.532 2.2047 117.532 62.1051 2.88416 122.006 117.532Z" fill="#040404" transform="matrix(-1.00155 1.22465e-16 -1.22654e-16 -1 124.819 125.546)"/><path d="M62.1051 5.76835 4.40942 116.197 119.801 116.197 62.1051 5.76835M62.1051 0 124.21 118.868 0 118.868 62.1051 0Z" fill="#02E3C1" transform="matrix(-1.00155 1.22465e-16 -1.22654e-16 -1 124.819 125.546)"/><text fill="#02E3C1" font-family="Segoe UI,Segoe UI_MSFontService,sans-serif" font-weight="400" font-size="58" transform="matrix(1.33766 0 0 1.33559 43.2216 84)">T</text><path d="M122.013 118.445 2.19694 118.445 62.1051 2.90158 122.013 118.445Z" fill="#040404" transform="matrix(1.00155 -2.44929e-16 2.45309e-16 1 75.181 7.10269)"/><path d="M62.1051 5.80319 4.39389 117.109 119.816 117.109 62.1051 5.80319M62.1051 0 124.21 119.78 0 119.78 62.1051 0Z" fill="#FD1C50" transform="matrix(1.00155 -2.44929e-16 2.45309e-16 1 75.181 7.10269)"/><text fill="#FD1C50" font-family="Segoe UI,Segoe UI_MSFontService,sans-serif" font-weight="400" font-size="60" transform="matrix(1.33766 0.0227051 -0.0227403 1.33559 108.031 109)">C</text></g></svg>