<svg width="192" height="125" xmlns="http://www.w3.org/2000/svg" xmlns:xlink="http://www.w3.org/1999/xlink" xml:space="preserve" overflow="hidden"><defs><clipPath id="clip0"><rect x="0" y="0" width="192" height="125"/></clipPath></defs><g clip-path="url(#clip0)"><path d="M117.307 113.006 2.11979 113.006 59.7132 2.77308 117.307 113.006Z" fill="#040404" transform="matrix(-1 1.22471e-16 -1.22465e-16 -1.00005 119.826 120.717)"/><path d="M59.7132 5.54619 4.2396 111.722 115.187 111.722 59.7132 5.54619M59.7132 0 119.426 114.29 0 114.29 59.7132 0Z" fill="#F5F4F4" transform="matrix(-1 1.22471e-16 -1.22465e-16 -1.00005 119.826 120.717)"/><text fill="#FFFFFF" font-family="Segoe UI,Segoe UI_MSFontService,sans-serif" font-weight="400" font-size="58" transform="matrix(1.28416 0 0 1.28422 41.4927 81)">T</text><path d="M117.314 113.883 2.11233 113.883 59.7132 2.78984 117.314 113.883Z" fill="#040404" transform="matrix(1 -2.44943e-16 2.44929e-16 1.00005 72.1738 6.82951)"/><path d="M59.7132 5.57969 4.22467 112.599 115.202 112.599 59.7132 5.57969M59.7132 0 119.426 115.167 0 115.167 59.7132 0Z" fill="#F5F4F4" transform="matrix(1 -2.44943e-16 2.44929e-16 1.00005 72.1738 6.82951)"/><text fill="#FFFFFF" font-family="Segoe UI,Segoe UI_MSFontService,sans-serif" font-weight="400" font-size="60" transform="matrix(1.28416 0.0218318 -0.0218306 1.28422 103.71 105)">C</text></g></svg>